name D:\school\WTK\thesis\model\3dpredictsim\Results\MidTarsalJoint\Fal_s1_bCst_PF_Natali2010_ls150_MT_k800_d020_MTP_T5_ig23.mot
datacolumns 128
datarows 4
range 1.11877484 1.15233809
endheader
time	pelvis_tilt	pelvis_list	pelvis_rotation	pelvis_tx	pelvis_ty	pelvis_tz	hip_flexion_l	hip_adduction_l	hip_rotation_l	hip_flexion_r	hip_adduction_r	hip_rotation_r	knee_angle_l	knee_angle_r	ankle_angle_l	ankle_angle_r	subtalar_angle_l	subtalar_angle_r	mtj_angle_l	mtj_angle_r	mtp_angle_l	mtp_angle_r	lumbar_extension	lumbar_bending	lumbar_rotation	arm_flex_l	arm_add_l	arm_rot_l	arm_flex_r	arm_add_r	arm_rot_r	elbow_flex_l	elbow_flex_r	pro_sup_l	pro_sup_r	glut_med1_l/activation	glut_med2_l/activation	glut_med3_l/activation	glut_min1_l/activation	glut_min2_l/activation	glut_min3_l/activation	semimem_l/activation	semiten_l/activation	bifemlh_l/activation	bifemsh_l/activation	sar_l/activation	add_long_l/activation	add_brev_l/activation	add_mag1_l/activation	add_mag2_l/activation	add_mag3_l/activation	tfl_l/activation	pect_l/activation	grac_l/activation	glut_max1_l/activation	glut_max2_l/activation	glut_max3_l/activation	iliacus_l/activation	psoas_l/activation	quad_fem_l/activation	gem_l/activation	peri_l/activation	rect_fem_l/activation	vas_med_l/activation	vas_int_l/activation	vas_lat_l/activation	med_gas_l/activation	lat_gas_l/activation	soleus_l/activation	tib_post_l/activation	flex_dig_l/activation	flex_hal_l/activation	tib_ant_l/activation	per_brev_l/activation	per_long_l/activation	per_tert_l/activation	ext_dig_l/activation	ext_hal_l/activation	ercspn_l/activation	intobl_l/activation	extobl_l/activation	glut_med1_r/activation	glut_med2_r/activation	glut_med3_r/activation	glut_min1_r/activation	glut_min2_r/activation	glut_min3_r/activation	semimem_r/activation	semiten_r/activation	bifemlh_r/activation	bifemsh_r/activation	sar_r/activation	add_long_r/activation	add_brev_r/activation	add_mag1_r/activation	add_mag2_r/activation	add_mag3_r/activation	tfl_r/activation	pect_r/activation	grac_r/activation	glut_max1_r/activation	glut_max2_r/activation	glut_max3_r/activation	iliacus_r/activation	psoas_r/activation	quad_fem_r/activation	gem_r/activation	peri_r/activation	rect_fem_r/activation	vas_med_r/activation	vas_int_r/activation	vas_lat_r/activation	med_gas_r/activation	lat_gas_r/activation	soleus_r/activation	tib_post_r/activation	flex_dig_r/activation	flex_hal_r/activation	tib_ant_r/activation	per_brev_r/activation	per_long_r/activation	per_tert_r/activation	ext_dig_r/activation	ext_hal_r/activation	ercspn_r/activation	intobl_r/activation	extobl_r/activation	
          1.11877484	         -2.93014080	         -2.09686832	          5.08169952	          1.39846855	          0.91933226	         -0.00153898	        -17.28975215	         -1.11754466	          6.36345404	         29.38139623	          3.50376241	         -2.00441804	         -7.07938595	        -12.20049975	         -0.77894433	          5.82016733	          8.55231925	         -4.51576690	          1.94611590	         -0.00907739	         17.31792838	         -0.88171494	         -2.05672484	          0.31760619	         -1.98676947	          5.25375339	        -13.45728633	         17.20053980	         -4.16792946	        -13.46614277	          8.52835222	         32.54475793	         15.25669820	         86.51662706	         86.51662706	          0.26636646	          0.09908225	          0.07100145	          0.29942299	          0.19613392	          0.10816640	          0.05000091	          0.05000026	          0.05000018	          0.06152723	          0.10024884	          0.10777563	          0.05001726	          0.05000208	          0.05000281	          0.05000082	          0.30308537	          0.08652407	          0.05000436	          0.05000515	          0.05000360	          0.05000318	          0.39128627	          0.62180358	          0.05000723	          0.05000088	          0.05508610	          0.22309231	          0.05504919	          0.05001899	          0.05001266	          0.28538065	          0.38973744	          0.30893262	          0.28639331	          0.28231468	          0.37088998	          0.05000004	          0.05765854	          0.12477398	          0.05000023	          0.05000006	          0.05000023	          0.05000003	          0.05000014	          0.05000010	          0.05932268	          0.05932277	          0.05000018	          0.05932314	          0.05932310	          0.05000514	          0.10670330	          0.05087293	          0.20828386	          0.05000022	          0.05000042	          0.13513246	          0.30753808	          0.14522165	          0.14991173	          0.11159389	          0.05000012	          0.08320517	          0.07964897	          0.05000053	          0.12939703	          0.15531607	          0.05227647	          0.05000035	          0.16349596	          0.25172882	          0.13006961	          0.05880078	          0.14626256	          0.14368734	          0.12896221	          0.05000031	          0.05000035	          0.05164850	          0.05000002	          0.05000037	          0.05000017	          0.56501292	          0.26743052	          0.16871105	          0.27547768	          0.48279749	          0.23576483	          0.05932315	          0.11046850	          0.10203945	
          1.12996259	         -2.92690719	         -2.18491304	          5.36658242	          1.41531197	          0.91833777	         -0.00134158	        -17.16787748	         -1.41155505	          6.15912827	         28.73547419	          3.82816376	         -1.76465722	         -8.97734321	        -12.35373239	         -1.44640306	          5.20350959	          9.47396497	         -4.89327205	          1.54197582	         -0.00066423	         18.60063703	         -0.87135586	         -1.85979327	          0.52133379	         -2.05086691	          4.95147128	        -13.46731282	         17.44491378	         -5.04016004	        -13.46845420	          8.27749470	         33.75497914	         14.89847991	         86.51662706	         86.51662706	          0.22450483	          0.08351068	          0.05984302	          0.25236640	          0.16530990	          0.09116720	          0.05000309	          0.05000065	          0.05000073	          0.05185780	          0.08449412	          0.19575387	          0.05247932	          0.05934442	          0.05931630	          0.05932349	          0.25545313	          0.09904652	          0.05000436	          0.05000258	          0.05000180	          0.05000213	          0.32979248	          0.57573737	          0.05000043	          0.05931716	          0.05932304	          0.18803204	          0.12349256	          0.15762625	          0.14699391	          0.24053071	          0.32848698	          0.26038132	          0.24618909	          0.23794720	          0.31260239	          0.05000004	          0.05000014	          0.13462617	          0.05000013	          0.05000004	          0.05000019	          0.05756536	          0.05932390	          0.05660060	          0.05000001	          0.05000006	          0.10822757	          0.05000006	          0.05000007	          0.05000012	          0.08993413	          0.05000025	          0.17555038	          0.05000018	          0.05000326	          0.11389549	          0.25920637	          0.31049580	          0.21403049	          0.12743139	          0.05000091	          0.07013160	          0.12200209	          0.07615633	          0.11576999	          0.13090709	          0.05000010	          0.05000149	          0.38904204	          0.21216758	          0.10962814	          0.05932452	          0.14886044	          0.15068440	          0.12870215	          0.05000031	          0.05932442	          0.05000003	          0.05972265	          0.05000609	          0.05932384	          0.47621740	          0.28221578	          0.20468591	          0.23218423	          0.44653020	          0.19871251	          0.05000004	          0.09310746	          0.08600310	
          1.14115034	         -2.91989460	         -2.27593605	          5.62270509	          1.43242267	          0.91739686	         -0.00115657	        -16.97161487	         -1.70441119	          5.94596783	         27.97163805	          4.07808584	         -1.50386344	        -10.99047685	        -12.83252901	         -2.27852757	          4.70711996	         10.35032552	         -5.28950085	          1.08083618	         -0.09372868	         19.82107579	         -0.91776604	         -1.64462778	          0.73576927	         -2.10388782	          4.57562005	        -13.47581139	         17.61741464	         -5.93898548	        -13.47688240	          8.07034722	         34.95143019	         14.59801425	         86.51662706	         86.51662706	          0.32952107	          0.07038631	          0.05043824	          0.31134518	          0.13933017	          0.07683957	          0.05000165	          0.05000027	          0.05000022	          0.05000021	          0.07121545	          0.16498972	          0.05160568	          0.05001832	          0.05000189	          0.05000115	          0.21757424	          0.08348228	          0.05000151	          0.05000333	          0.05000205	          0.05000140	          0.27796296	          0.54096046	          0.05000040	          0.05000080	          0.05000028	          0.15848131	          0.10408509	          0.13285436	          0.12389292	          0.20272931	          0.27686253	          0.21946022	          0.20749851	          0.20055201	          0.26347449	          0.05000002	          0.09314909	          0.15428073	          0.05000014	          0.05000006	          0.05000015	          0.05196231	          0.05000066	          0.05000005	          0.23432399	          0.23419019	          0.29449694	          0.35344233	          0.21769216	          0.20080325	          0.08806227	          0.05000640	          0.14971140	          0.08059309	          0.05000290	          0.09599593	          0.21847003	          0.26169892	          0.18039401	          0.12222546	          0.05000052	          0.05932358	          0.10283004	          0.13727565	          0.13922692	          0.11033417	          0.05931516	          0.05000083	          0.32790092	          0.17882383	          0.22317544	          0.05000121	          0.12546588	          0.12700320	          0.10847562	          0.05000146	          0.05000171	          0.05302905	          0.05033681	          0.05000049	          0.05000106	          0.56414573	          0.33911879	          0.17258686	          0.34479505	          0.51961270	          0.19037194	          0.06393770	          0.11346663	          0.07248701	
          1.15233809	         -2.91132778	         -2.35983963	          5.84534316	          1.44958544	          0.91653307	         -0.00095191	        -16.66932594	         -1.98601694	          5.73959609	         27.16156495	          4.31074399	         -1.24338995	        -13.14926642	        -13.27849562	         -3.28819201	          4.25770889	         11.18396112	         -5.69214167	          0.60957107	         -0.07821103	         20.88494511	         -0.89635068	         -1.43406353	          0.95094510	         -2.14826499	          4.16310327	        -13.48963832	         17.74429736	         -6.81679975	        -13.48588307	          7.91013616	         36.11297760	         14.33038477	         86.51662706	         86.51662706	          0.30609290	          0.05932454	          0.05000011	          0.26241798	          0.11743336	          0.06476365	          0.05000293	          0.05000029	          0.05000025	          0.05000022	          0.06002358	          0.16957649	          0.05000841	          0.05000332	          0.05000416	          0.05000273	          0.18338169	          0.07036407	          0.05000133	          0.05000240	          0.05000157	          0.05000121	          0.23427881	          0.49290098	          0.05000024	          0.05000084	          0.05000021	          0.13357469	          0.12683049	          0.11527581	          0.11755292	          0.17086871	          0.23335129	          0.18497022	          0.17488843	          0.16903372	          0.22206739	          0.05001284	          0.09730263	          0.15661315	          0.05000056	          0.11552999	          0.05000098	          0.08280426	          0.05000001	          0.05000004	          0.32451762	          0.32949011	          0.36657131	          0.29789618	          0.18348087	          0.18742654	          0.07705115	          0.09053161	          0.12618324	          0.06793224	          0.05000076	          0.08090943	          0.18413573	          0.22057118	          0.17462330	          0.16422283	          0.05000031	          0.05000265	          0.10424691	          0.22956612	          0.18978140	          0.16161713	          0.05000010	          0.05000011	          0.27636866	          0.15072027	          0.18810212	          0.05000006	          0.13518366	          0.15817279	          0.11113658	          0.05000003	          0.05000006	          0.05000000	          0.05000001	          0.05000012	          0.05000011	          0.61815099	          0.29576970	          0.16126503	          0.57149445	          0.55246881	          0.30110378	          0.08282898	          0.09563443	          0.06109508	
